<mxfile host="65bd71144e">
    <diagram id="ODJKr3TyQrRrn0TrAVZW" name="Page-1">
        <mxGraphModel dx="1192" dy="808" grid="1" gridSize="10" guides="1" tooltips="1" connect="1" arrows="1" fold="1" page="1" pageScale="1" pageWidth="827" pageHeight="1169" math="0" shadow="0">
            <root>
                <mxCell id="0"/>
                <mxCell id="1" parent="0"/>
                <mxCell id="12" value="未決着" style="edgeStyle=none;html=1;entryX=0.5;entryY=0;entryDx=0;entryDy=0;" edge="1" parent="1" source="2" target="10">
                    <mxGeometry relative="1" as="geometry"/>
                </mxCell>
                <mxCell id="18" value="決着" style="edgeStyle=none;html=1;entryX=1;entryY=0.5;entryDx=0;entryDy=0;" edge="1" parent="1" source="2" target="16">
                    <mxGeometry relative="1" as="geometry">
                        <Array as="points">
                            <mxPoint x="350" y="480"/>
                            <mxPoint x="350" y="630"/>
                            <mxPoint x="350" y="800"/>
                        </Array>
                    </mxGeometry>
                </mxCell>
                <mxCell id="2" value="勝利判定" style="rhombus;whiteSpace=wrap;html=1;" vertex="1" parent="1">
                    <mxGeometry x="105" y="435" width="130" height="80" as="geometry"/>
                </mxCell>
                <mxCell id="5" value="" style="edgeStyle=none;html=1;" edge="1" parent="1" source="3" target="4">
                    <mxGeometry relative="1" as="geometry"/>
                </mxCell>
                <mxCell id="3" value="役職決定" style="rounded=0;whiteSpace=wrap;html=1;" vertex="1" parent="1">
                    <mxGeometry x="110" y="120" width="120" height="60" as="geometry"/>
                </mxCell>
                <mxCell id="7" value="" style="edgeStyle=none;html=1;" edge="1" parent="1" source="4" target="6">
                    <mxGeometry relative="1" as="geometry"/>
                </mxCell>
                <mxCell id="4" value="議論" style="rounded=0;whiteSpace=wrap;html=1;" vertex="1" parent="1">
                    <mxGeometry x="110" y="228" width="120" height="60" as="geometry"/>
                </mxCell>
                <mxCell id="9" value="" style="edgeStyle=none;html=1;entryX=0.5;entryY=0;entryDx=0;entryDy=0;" edge="1" parent="1" source="6" target="2">
                    <mxGeometry relative="1" as="geometry">
                        <mxPoint x="170" y="460" as="targetPoint"/>
                    </mxGeometry>
                </mxCell>
                <mxCell id="6" value="投票" style="rounded=0;whiteSpace=wrap;html=1;" vertex="1" parent="1">
                    <mxGeometry x="110" y="337" width="120" height="60" as="geometry"/>
                </mxCell>
                <mxCell id="14" style="edgeStyle=none;html=1;exitX=0.5;exitY=1;exitDx=0;exitDy=0;entryX=0.5;entryY=0;entryDx=0;entryDy=0;" edge="1" parent="1" source="10" target="13">
                    <mxGeometry relative="1" as="geometry"/>
                </mxCell>
                <mxCell id="10" value="夜の行動" style="whiteSpace=wrap;html=1;" vertex="1" parent="1">
                    <mxGeometry x="110" y="553" width="120" height="60" as="geometry"/>
                </mxCell>
                <mxCell id="17" value="決着" style="edgeStyle=none;html=1;" edge="1" parent="1" source="13" target="16">
                    <mxGeometry relative="1" as="geometry"/>
                </mxCell>
                <mxCell id="19" value="未決着" style="edgeStyle=none;html=1;entryX=0;entryY=0.5;entryDx=0;entryDy=0;" edge="1" parent="1" source="13" target="4">
                    <mxGeometry relative="1" as="geometry">
                        <Array as="points">
                            <mxPoint x="40" y="692"/>
                            <mxPoint x="40" y="460"/>
                            <mxPoint x="40" y="258"/>
                        </Array>
                    </mxGeometry>
                </mxCell>
                <mxCell id="13" value="勝利判定" style="rhombus;whiteSpace=wrap;html=1;" vertex="1" parent="1">
                    <mxGeometry x="105" y="652" width="130" height="80" as="geometry"/>
                </mxCell>
                <mxCell id="16" value="game終了" style="whiteSpace=wrap;html=1;" vertex="1" parent="1">
                    <mxGeometry x="110" y="770" width="120" height="60" as="geometry"/>
                </mxCell>
                <mxCell id="24" value="" style="edgeStyle=none;html=1;" edge="1" parent="1" source="22" target="3">
                    <mxGeometry relative="1" as="geometry"/>
                </mxCell>
                <mxCell id="22" value="game設定" style="whiteSpace=wrap;html=1;rounded=0;" vertex="1" parent="1">
                    <mxGeometry x="110" y="20" width="120" height="60" as="geometry"/>
                </mxCell>
                <mxCell id="25" value="&lt;h1 style=&quot;font-size: 16px;&quot;&gt;ルール&lt;/h1&gt;&lt;div style=&quot;font-size: 16px;&quot;&gt;&lt;ul style=&quot;font-size: 13px;&quot;&gt;&lt;li&gt;村人陣営と人狼陣営に分かれて自陣営の勝利を目指すゲーム&lt;/li&gt;&lt;li&gt;昼のターンと夜のターンがそれぞれのターンで必要な行動をする&lt;/li&gt;&lt;ul&gt;&lt;li&gt;昼のターン：&lt;/li&gt;&lt;ul&gt;&lt;li&gt;人狼が誰かを議論する（全役共通）&lt;/li&gt;&lt;li&gt;制限時間がきたら最も人狼だと疑わしい人物を投票制で指名し村から追放する（全役共通）&lt;/li&gt;&lt;li&gt;追放された人物はゲームから外れる（全役共通）&lt;/li&gt;&lt;/ul&gt;&lt;li&gt;夜のターン：&lt;/li&gt;&lt;ul&gt;&lt;li&gt;全役共通&lt;/li&gt;&lt;ul&gt;&lt;li&gt;疑わしい人物の投票&lt;/li&gt;&lt;/ul&gt;&lt;li&gt;人狼&lt;/li&gt;&lt;ul&gt;&lt;li&gt;殺害&lt;/li&gt;&lt;/ul&gt;&lt;/ul&gt;&lt;/ul&gt;&lt;/ul&gt;&lt;b style=&quot;&quot;&gt;&lt;font style=&quot;font-size: 16px;&quot;&gt;勝利条件&lt;/font&gt;&lt;/b&gt;&lt;/div&gt;&lt;div style=&quot;font-size: 13px;&quot;&gt;&lt;ul&gt;&lt;li&gt;村人陣営：すべての人狼を追放&lt;/li&gt;&lt;li&gt;人狼陣営：村人陣営と同数になる&lt;/li&gt;&lt;/ul&gt;&lt;/div&gt;" style="text;html=1;strokeColor=none;fillColor=none;spacing=5;spacingTop=-20;whiteSpace=wrap;overflow=hidden;rounded=0;" vertex="1" parent="1">
                    <mxGeometry x="330" y="20" width="440" height="420" as="geometry"/>
                </mxCell>
            </root>
        </mxGraphModel>
    </diagram>
</mxfile>